<?xml version="1.0" encoding="utf-8"?>
<svg xmlns="http://www.w3.org/2000/svg" xmlns:xlink="http://www.w3.org/1999/xlink" style="margin: auto; background: none; display: block; shape-rendering: auto;" width="262px" height="262px" viewBox="0 0 100 100" preserveAspectRatio="xMidYMid">
<g transform="rotate(0 50 50)">
  <rect x="47.5" y="19" rx="2.5" ry="3.7600000000000002" width="5" height="8" fill="#eeb76b">
    <animate attributeName="opacity" values="1;0" keyTimes="0;1" dur="0.4310344827586207s" begin="-0.41713014460511677s" repeatCount="indefinite"></animate>
  </rect>
</g><g transform="rotate(11.612903225806452 50 50)">
  <rect x="47.5" y="19" rx="2.5" ry="3.7600000000000002" width="5" height="8" fill="#9c3d54">
    <animate attributeName="opacity" values="1;0" keyTimes="0;1" dur="0.4310344827586207s" begin="-0.4032258064516129s" repeatCount="indefinite"></animate>
  </rect>
</g><g transform="rotate(23.225806451612904 50 50)">
  <rect x="47.5" y="19" rx="2.5" ry="3.7600000000000002" width="5" height="8" fill="#310b0b">
    <animate attributeName="opacity" values="1;0" keyTimes="0;1" dur="0.4310344827586207s" begin="-0.389321468298109s" repeatCount="indefinite"></animate>
  </rect>
</g><g transform="rotate(34.83870967741935 50 50)">
  <rect x="47.5" y="19" rx="2.5" ry="3.7600000000000002" width="5" height="8" fill="#edb66b">
    <animate attributeName="opacity" values="1;0" keyTimes="0;1" dur="0.4310344827586207s" begin="-0.3754171301446051s" repeatCount="indefinite"></animate>
  </rect>
</g><g transform="rotate(46.45161290322581 50 50)">
  <rect x="47.5" y="19" rx="2.5" ry="3.7600000000000002" width="5" height="8" fill="#310b0b">
    <animate attributeName="opacity" values="1;0" keyTimes="0;1" dur="0.4310344827586207s" begin="-0.3615127919911012s" repeatCount="indefinite"></animate>
  </rect>
</g><g transform="rotate(58.064516129032256 50 50)">
  <rect x="47.5" y="19" rx="2.5" ry="3.7600000000000002" width="5" height="8" fill="#eeb76b">
    <animate attributeName="opacity" values="1;0" keyTimes="0;1" dur="0.4310344827586207s" begin="-0.3476084538375973s" repeatCount="indefinite"></animate>
  </rect>
</g><g transform="rotate(69.6774193548387 50 50)">
  <rect x="47.5" y="19" rx="2.5" ry="3.7600000000000002" width="5" height="8" fill="#9c3d54">
    <animate attributeName="opacity" values="1;0" keyTimes="0;1" dur="0.4310344827586207s" begin="-0.3337041156840934s" repeatCount="indefinite"></animate>
  </rect>
</g><g transform="rotate(81.29032258064517 50 50)">
  <rect x="47.5" y="19" rx="2.5" ry="3.7600000000000002" width="5" height="8" fill="#310b0b">
    <animate attributeName="opacity" values="1;0" keyTimes="0;1" dur="0.4310344827586207s" begin="-0.3197997775305895s" repeatCount="indefinite"></animate>
  </rect>
</g><g transform="rotate(92.90322580645162 50 50)">
  <rect x="47.5" y="19" rx="2.5" ry="3.7600000000000002" width="5" height="8" fill="#edb66b">
    <animate attributeName="opacity" values="1;0" keyTimes="0;1" dur="0.4310344827586207s" begin="-0.30589543937708563s" repeatCount="indefinite"></animate>
  </rect>
</g><g transform="rotate(104.51612903225806 50 50)">
  <rect x="47.5" y="19" rx="2.5" ry="3.7600000000000002" width="5" height="8" fill="#310b0b">
    <animate attributeName="opacity" values="1;0" keyTimes="0;1" dur="0.4310344827586207s" begin="-0.29199110122358174s" repeatCount="indefinite"></animate>
  </rect>
</g><g transform="rotate(116.12903225806451 50 50)">
  <rect x="47.5" y="19" rx="2.5" ry="3.7600000000000002" width="5" height="8" fill="#eeb76b">
    <animate attributeName="opacity" values="1;0" keyTimes="0;1" dur="0.4310344827586207s" begin="-0.27808676307007785s" repeatCount="indefinite"></animate>
  </rect>
</g><g transform="rotate(127.74193548387096 50 50)">
  <rect x="47.5" y="19" rx="2.5" ry="3.7600000000000002" width="5" height="8" fill="#9c3d54">
    <animate attributeName="opacity" values="1;0" keyTimes="0;1" dur="0.4310344827586207s" begin="-0.26418242491657395s" repeatCount="indefinite"></animate>
  </rect>
</g><g transform="rotate(139.3548387096774 50 50)">
  <rect x="47.5" y="19" rx="2.5" ry="3.7600000000000002" width="5" height="8" fill="#310b0b">
    <animate attributeName="opacity" values="1;0" keyTimes="0;1" dur="0.4310344827586207s" begin="-0.25027808676307006s" repeatCount="indefinite"></animate>
  </rect>
</g><g transform="rotate(150.96774193548387 50 50)">
  <rect x="47.5" y="19" rx="2.5" ry="3.7600000000000002" width="5" height="8" fill="#edb66b">
    <animate attributeName="opacity" values="1;0" keyTimes="0;1" dur="0.4310344827586207s" begin="-0.23637374860956617s" repeatCount="indefinite"></animate>
  </rect>
</g><g transform="rotate(162.58064516129033 50 50)">
  <rect x="47.5" y="19" rx="2.5" ry="3.7600000000000002" width="5" height="8" fill="#310b0b">
    <animate attributeName="opacity" values="1;0" keyTimes="0;1" dur="0.4310344827586207s" begin="-0.22246941045606228s" repeatCount="indefinite"></animate>
  </rect>
</g><g transform="rotate(174.19354838709677 50 50)">
  <rect x="47.5" y="19" rx="2.5" ry="3.7600000000000002" width="5" height="8" fill="#eeb76b">
    <animate attributeName="opacity" values="1;0" keyTimes="0;1" dur="0.4310344827586207s" begin="-0.20856507230255839s" repeatCount="indefinite"></animate>
  </rect>
</g><g transform="rotate(185.80645161290323 50 50)">
  <rect x="47.5" y="19" rx="2.5" ry="3.7600000000000002" width="5" height="8" fill="#9c3d54">
    <animate attributeName="opacity" values="1;0" keyTimes="0;1" dur="0.4310344827586207s" begin="-0.1946607341490545s" repeatCount="indefinite"></animate>
  </rect>
</g><g transform="rotate(197.41935483870967 50 50)">
  <rect x="47.5" y="19" rx="2.5" ry="3.7600000000000002" width="5" height="8" fill="#310b0b">
    <animate attributeName="opacity" values="1;0" keyTimes="0;1" dur="0.4310344827586207s" begin="-0.1807563959955506s" repeatCount="indefinite"></animate>
  </rect>
</g><g transform="rotate(209.03225806451613 50 50)">
  <rect x="47.5" y="19" rx="2.5" ry="3.7600000000000002" width="5" height="8" fill="#edb66b">
    <animate attributeName="opacity" values="1;0" keyTimes="0;1" dur="0.4310344827586207s" begin="-0.1668520578420467s" repeatCount="indefinite"></animate>
  </rect>
</g><g transform="rotate(220.6451612903226 50 50)">
  <rect x="47.5" y="19" rx="2.5" ry="3.7600000000000002" width="5" height="8" fill="#310b0b">
    <animate attributeName="opacity" values="1;0" keyTimes="0;1" dur="0.4310344827586207s" begin="-0.15294771968854282s" repeatCount="indefinite"></animate>
  </rect>
</g><g transform="rotate(232.25806451612902 50 50)">
  <rect x="47.5" y="19" rx="2.5" ry="3.7600000000000002" width="5" height="8" fill="#eeb76b">
    <animate attributeName="opacity" values="1;0" keyTimes="0;1" dur="0.4310344827586207s" begin="-0.13904338153503892s" repeatCount="indefinite"></animate>
  </rect>
</g><g transform="rotate(243.8709677419355 50 50)">
  <rect x="47.5" y="19" rx="2.5" ry="3.7600000000000002" width="5" height="8" fill="#9c3d54">
    <animate attributeName="opacity" values="1;0" keyTimes="0;1" dur="0.4310344827586207s" begin="-0.12513904338153503s" repeatCount="indefinite"></animate>
  </rect>
</g><g transform="rotate(255.48387096774192 50 50)">
  <rect x="47.5" y="19" rx="2.5" ry="3.7600000000000002" width="5" height="8" fill="#310b0b">
    <animate attributeName="opacity" values="1;0" keyTimes="0;1" dur="0.4310344827586207s" begin="-0.11123470522803114s" repeatCount="indefinite"></animate>
  </rect>
</g><g transform="rotate(267.0967741935484 50 50)">
  <rect x="47.5" y="19" rx="2.5" ry="3.7600000000000002" width="5" height="8" fill="#edb66b">
    <animate attributeName="opacity" values="1;0" keyTimes="0;1" dur="0.4310344827586207s" begin="-0.09733036707452725s" repeatCount="indefinite"></animate>
  </rect>
</g><g transform="rotate(278.7096774193548 50 50)">
  <rect x="47.5" y="19" rx="2.5" ry="3.7600000000000002" width="5" height="8" fill="#310b0b">
    <animate attributeName="opacity" values="1;0" keyTimes="0;1" dur="0.4310344827586207s" begin="-0.08342602892102335s" repeatCount="indefinite"></animate>
  </rect>
</g><g transform="rotate(290.3225806451613 50 50)">
  <rect x="47.5" y="19" rx="2.5" ry="3.7600000000000002" width="5" height="8" fill="#eeb76b">
    <animate attributeName="opacity" values="1;0" keyTimes="0;1" dur="0.4310344827586207s" begin="-0.06952169076751946s" repeatCount="indefinite"></animate>
  </rect>
</g><g transform="rotate(301.93548387096774 50 50)">
  <rect x="47.5" y="19" rx="2.5" ry="3.7600000000000002" width="5" height="8" fill="#9c3d54">
    <animate attributeName="opacity" values="1;0" keyTimes="0;1" dur="0.4310344827586207s" begin="-0.05561735261401557s" repeatCount="indefinite"></animate>
  </rect>
</g><g transform="rotate(313.5483870967742 50 50)">
  <rect x="47.5" y="19" rx="2.5" ry="3.7600000000000002" width="5" height="8" fill="#310b0b">
    <animate attributeName="opacity" values="1;0" keyTimes="0;1" dur="0.4310344827586207s" begin="-0.04171301446051168s" repeatCount="indefinite"></animate>
  </rect>
</g><g transform="rotate(325.16129032258067 50 50)">
  <rect x="47.5" y="19" rx="2.5" ry="3.7600000000000002" width="5" height="8" fill="#edb66b">
    <animate attributeName="opacity" values="1;0" keyTimes="0;1" dur="0.4310344827586207s" begin="-0.027808676307007785s" repeatCount="indefinite"></animate>
  </rect>
</g><g transform="rotate(336.7741935483871 50 50)">
  <rect x="47.5" y="19" rx="2.5" ry="3.7600000000000002" width="5" height="8" fill="#310b0b">
    <animate attributeName="opacity" values="1;0" keyTimes="0;1" dur="0.4310344827586207s" begin="-0.013904338153503892s" repeatCount="indefinite"></animate>
  </rect>
</g><g transform="rotate(348.38709677419354 50 50)">
  <rect x="47.5" y="19" rx="2.5" ry="3.7600000000000002" width="5" height="8" fill="#eeb76b">
    <animate attributeName="opacity" values="1;0" keyTimes="0;1" dur="0.4310344827586207s" begin="0s" repeatCount="indefinite"></animate>
  </rect>
</g>
<!-- [ldio] generated by https://loading.io/ --></svg>